<svg width="18" height="20" viewBox="0 0 18 20" fill="none" xmlns="http://www.w3.org/2000/svg">
<g clip-path="url(#clip0_114_791)">
<path d="M11.5859 4.97497C9.15857 4.57925 1.88061 0.864333 1.47873 0.864333C1.07686 0.864333 -2.00955 2.79044 2.14987 4.97901C6.30928 7.16758 12.1606 4.28852 11.5859 6.893C11.0112 9.50152 2.68838 6.62246 2.14987 7.44216C1.61135 8.26187 0.538344 11.0077 2.55174 17.4482C4.56514 23.8888 4.16326 13.6122 3.62475 12.5138C3.08624 11.4155 2.55174 7.99132 4.4285 8.94832C6.30526 9.90532 4.77411 17.1736 5.80693 17.5855C6.84377 17.9974 14.4955 8.54049 14.4955 7.57945C14.4955 6.61842 16.3722 9.89724 15.2309 11.3509C14.0936 12.8046 11.4975 12.8207 11.0474 13.592C10.5973 14.3632 9.464 20.3636 13.6837 19.98C17.9034 19.5964 13.3059 17.9005 13.3059 17.0565C13.3059 16.2126 17.602 12.1302 17.9797 7.20392C18.3575 2.27762 10.746 6.82032 12.5544 5.04766C14.3629 3.27499 16.8505 5.27782 16.9268 3.81608C17.0032 2.35434 18.7353 -0.185536 5.01926 0.00828581C5.01926 0.00828581 4.4928 1.19948 6.679 1.58713C8.8652 1.97477 11.2885 0.739156 11.5859 1.43368C11.8793 2.12821 13.1693 5.23744 11.5859 4.97497Z" fill="#76AA5B"/>
</g>
<defs>
<clipPath id="clip0_114_791">
<rect width="18" height="20" fill="white"/>
</clipPath>
</defs>
</svg>
