<svg width="89" height="470" viewBox="0 0 89 470" fill="none" xmlns="http://www.w3.org/2000/svg">
<rect x="35" width="19" height="470" rx="9.5" fill="#33333B"/>
<rect y="94" width="89" height="178" rx="5" fill="#5A616E"/>
<rect x="4" y="96" width="81" height="169" rx="5" fill="white"/>
<path d="M39.4327 245.713C25.772 244.606 13.8942 236.566 6 227.5V263C6 264.105 6.89543 265 8 265H81C82.1046 265 83 264.105 83 263V226C74.2375 239.07 59.8013 247 39.4327 245.713Z" fill="#7C98C9"/>
<path d="M15.0608 169.744C15.0608 169.744 72.9201 173.861 74.3294 169.582C75.7386 165.302 16.9398 164.043 15.0608 161.66C13.1819 159.29 32.267 149.784 47.4465 149.31C62.626 148.836 59.7941 142.661 56.9756 141.713C54.1437 140.765 15.7453 138.856 14.9266 134.59C14.1079 130.311 33.4212 132.221 33.4212 130.311C33.4212 128.402 -14.1439 117 32.4817 117C79.1074 117 54.6135 128.402 59.3243 131.733C64.0352 135.064 71.5646 146.94 61.6731 151.693C51.7816 156.446 32.9649 153.941 32.4683 155.593C31.9717 157.245 79 166.941 79 169.419C79 171.897 30.5088 181.904 28.2943 181.999C26.0797 182.094 5.51829 174.28 15.0608 169.744Z" fill="#7C98C9"/>
<path d="M1.5 178.5C2 181.5 2.37615 184.882 3.5 186C4.57901 187.073 57.8065 186.976 82.5664 186.554C84.4276 186.522 86.1997 185.607 86.6443 183.799C87.3466 180.944 87.2317 177.444 87.5 176.5" stroke="black" stroke-width="3" stroke-linecap="round"/>
</svg>
