<svg width="89" height="470" viewBox="0 0 89 470" fill="none" xmlns="http://www.w3.org/2000/svg">
<rect x="35" width="19" height="470" rx="9.5" fill="#33333B"/>
<rect y="94" width="89" height="178" rx="5" fill="#5A616E"/>
<rect x="4" y="96" width="81" height="169" rx="5" fill="white"/>
<path d="M6.8394 120.103C6.8394 120.103 3.04168 113.001 11.6021 110.421C20.1625 107.842 48.9878 118.191 61.5327 112.273C74.0776 106.355 81.3617 114.003 75.9142 117.22C70.4355 120.467 29.9681 115.793 28.4739 117.584C26.9797 119.375 73.5795 131.029 81.8287 129.936C90.0778 128.844 52.3808 180.802 42.9488 148.996C33.5168 117.189 24.396 122.379 23.2443 123.593C22.1236 124.807 60.879 169.603 40.9254 167.448C40.9254 167.448 36.723 171.788 41.4235 176.796C46.1239 181.803 18.1703 178.768 26.1081 162.622C34.046 146.477 17.9835 118.282 15.1508 120.406C12.3181 122.531 7.58649 124.595 6.8394 120.103Z" fill="#FFD15A"/>
<path d="M40.4801 257.846C40.4801 236.35 56.2984 218.905 75.8425 218.905C77.8646 218.905 79.8421 219.082 81.7751 219.438C82.4055 219.554 83 219.079 83 218.438V189C83 188.448 82.5523 188 82 188H48.3199C47.6725 188 47.1962 188.606 47.3287 189.24C47.8693 191.824 48.1604 194.482 48.1604 197.213C48.1604 218.709 30.708 236.154 9.20288 236.154C8.48623 236.154 7.76959 236.125 7.06252 236.086C6.48657 236.055 6 236.511 6 237.087V264C6 264.552 6.44772 265 7 265H39.9339C40.5583 265 41.0293 264.434 40.935 263.817C40.6379 261.871 40.4801 259.881 40.4801 257.846Z" fill="#FFD15A"/>
<path d="M1.5 178.5C2 181.5 2.37615 184.882 3.5 186C4.57901 187.073 57.8065 186.976 82.5664 186.554C84.4276 186.522 86.1997 185.607 86.6443 183.799C87.3466 180.944 87.2317 177.444 87.5 176.5" stroke="black" stroke-width="3" stroke-linecap="round"/>
</svg>
