<svg width="89" height="178" viewBox="0 0 89 178" fill="none" xmlns="http://www.w3.org/2000/svg">
<rect width="89" height="178" rx="5" fill="#5A616E"/>
<rect x="3" y="6" width="83" height="169" rx="5" fill="white"/>
<path d="M24.465 145.488C24.465 123.424 43.2603 105.535 66.4437 105.535C73.5075 105.535 80.161 107.205 86 110.136V96H3V171C3 173.209 4.79086 175 7 175H38.1527C29.745 167.694 24.465 157.18 24.465 145.488Z" fill="#E84648"/>
<path d="M60.3257 79.3893C60.3257 79.3893 71.0223 82.2875 65.0653 65.5454C59.1084 48.8032 60.1697 15.5673 58.4036 14.1845C56.6375 12.8018 53.0861 14.0861 51.6008 19.8981C50.1156 25.7101 57.979 61.6276 39.7059 56.3445C21.4328 51.0613 46.2124 18.8956 39.5437 16.08C32.8751 13.2565 26.1148 15.384 23.8031 19.3833C21.4914 23.3827 31.3467 23.1178 31.7672 24.923C32.1797 26.728 16.7679 79.3657 19.5655 78.7944C23.3543 78.0257 51.8077 54.7392 42.9657 87.1521C42.9657 87.1521 50.454 81.4034 50.7527 65.2724C51.0514 49.1413 53.8564 20.2194 54.7539 21.634C55.6672 23.0569 49.969 76.2019 60.3257 79.3893Z" fill="#E84648"/>
<rect y="89" width="3" height="13" fill="#5A616E"/>
<path d="M1.5 95C1.66667 95.5 2.8 96.6 6 97C9.2 97.4 59 97.1667 83.5 97C84.8333 97 87.5 96.6 87.5 95" stroke="black" stroke-width="3"/>
<rect x="86" y="88" width="3" height="13" fill="#5A616E"/>
<rect y="90" width="3" height="13" fill="#5A616E"/>
</svg>
