<svg width="95" height="87" viewBox="0 0 95 87" fill="none" xmlns="http://www.w3.org/2000/svg">
<path d="M26.9277 6.80554L32.2398 15.2837" stroke="#DFDFDF" stroke-width="2" stroke-linecap="round"/>
<path d="M11.3638 19.9017L19.0364 25.8675" stroke="#DFDFDF" stroke-width="2" stroke-linecap="round"/>
<path d="M1.92706 39.1131L11.7636 41.2742" stroke="#DFDFDF" stroke-width="2" stroke-linecap="round"/>
<path d="M3.13339 62.4641L12.5286 58.8367" stroke="#DFDFDF" stroke-width="2" stroke-linecap="round"/>
<path d="M15.8517 79.6688L21.5665 74.2278" stroke="#DFDFDF" stroke-width="2" stroke-linecap="round"/>
<path d="M67.7039 5.95844L63.5548 14.5116" stroke="#DFDFDF" stroke-width="2" stroke-linecap="round"/>
<path d="M48.1183 1.40405L47.9785 10.9095" stroke="#DFDFDF" stroke-width="2" stroke-linecap="round"/>
<path d="M83.3903 18.2941L75.7711 23.9792" stroke="#DFDFDF" stroke-width="2" stroke-linecap="round"/>
<path d="M93.2371 37.0643L83.8491 38.5601" stroke="#DFDFDF" stroke-width="2" stroke-linecap="round"/>
<path d="M92.2965 59.5298L82.9619 57.7308" stroke="#DFDFDF" stroke-width="2" stroke-linecap="round"/>
<path d="M81.0192 79.7964L73.3091 74.2352" stroke="#DFDFDF" stroke-width="2" stroke-linecap="round"/>
<circle cx="47.6387" cy="47.1156" r="39.3332" fill="#848484"/>
<circle cx="47.6387" cy="49.4047" r="37.2071" fill="#5A616E"/>
<circle cx="47.4124" cy="53.5324" r="30.2972" fill="#FFD15A"/>
<path d="M49.0203 24.7249C49.0203 23.8965 48.3488 23.2249 47.5203 23.2249C46.6919 23.2249 46.0203 23.8965 46.0203 24.7249H49.0203ZM46.0203 46.7992V48.2992H49.0203V46.7992H46.0203ZM46.0203 24.7249V46.7992H49.0203V24.7249H46.0203Z" fill="#C4C4C4"/>
</svg>
