<svg width="158" height="293" viewBox="0 0 158 293" fill="none" xmlns="http://www.w3.org/2000/svg">
<path d="M157.333 292.218L157.333 1.48486L0.557693 1.48486L0.557693 292.218L157.333 292.218Z" fill="#FAF9F9"/>
<path d="M9.6928 237.038C37.1397 237.038 59.4142 257.566 59.4142 282.929C59.4142 286.11 59.0805 289.206 58.4131 292.218H98.8743V245.521C95.0785 246.454 91.1575 246.963 87.1114 246.963C59.6645 246.963 37.39 224.314 37.39 196.406C37.39 195.006 37.4734 193.607 37.5568 192.25H0.557739V237.844C3.51933 237.292 6.56435 237.038 9.6928 237.038Z" fill="#FFD15A"/>
<path d="M114.45 158.748C114.45 135.03 130.391 115.782 150.087 115.782C152.557 115.782 154.961 116.071 157.299 116.648V81.6841H121.07C121.795 84.9642 122.19 88.3524 122.19 91.8487C122.19 115.566 104.602 134.814 82.9301 134.814C81.8432 134.814 80.7563 134.742 79.7024 134.67V166.642H115.109C114.68 164.082 114.45 161.451 114.45 158.748Z" fill="#FFD15A"/>
<path d="M83.4803 160.15H21.8154V176.26H83.4803V160.15Z" fill="#FFD15A" stroke="#FFD15A" stroke-width="0.25" stroke-miterlimit="10"/>
<path d="M0.589844 88.425C3.71876 89.3982 5.82666 88.8575 4.60803 86.3704C0.491036 77.972 6.97942 73.4664 6.97942 73.4664C26.9386 81.6485 6.28776 29.5999 0.589844 12.731V88.425Z" fill="#FFD15A"/>
<path d="M65.3748 16.5877C73.0489 13.9925 66.5605 1.08845 49.4338 4.94524C43.9994 6.17076 37.1158 4.58479 29.837 1.91748H12.8091C25.9505 5.66614 59.0841 18.7143 65.3748 16.5877Z" fill="#FFD15A"/>
<path d="M68.5698 35.9803C58.9195 34.7548 12.4798 7.36073 7.86881 1.91797H0.589966V7.00028C4.3776 6.09916 13.9949 8.65834 15.2135 48.8843C16.6298 95.5623 78.9446 37.2779 68.5698 35.9803Z" fill="#FFD15A"/>
<g clip-path="url(#clip0_160_116)">
<path d="M157.333 281.82C140.68 275.953 110.964 263.991 104.629 265.692C95.9445 268.029 102.625 281.896 121.95 278.671C131.501 277.071 144.813 282.81 157.358 288.982L157.358 281.82L157.333 281.82Z" fill="#FFD15A"/>
<path d="M101.91 245.221C109.951 246.517 140.46 264.295 157.335 275.597L157.335 218.249C141.449 202.578 92.2102 243.647 101.91 245.221Z" fill="#FFD15A"/>
</g>
<path d="M141.985 1L141.952 25.186L90.0447 25.0058V52.1475H142.545V1H141.985Z" fill="#FFD15A" stroke="#FFD15A" stroke-width="0.25" stroke-miterlimit="10"/>
<path d="M52.4977 78.4321L52.4648 102.588L0.557739 102.408V129.517H53.0576V78.4321H52.4977Z" fill="#FFD15A" stroke="#FFD15A" stroke-width="0.25" stroke-miterlimit="10"/>
<g clip-path="url(#clip1_160_116)">
<path d="M68.1494 273.449L68.2396 216.589L111.809 216.712V193.953H67.7207V273.449H68.1494Z" fill="#FFD15A" stroke="#FFD15A" stroke-width="0.25" stroke-miterlimit="10"/>
<path d="M67.8737 216.095H69.6451V244.526H67.8737V216.095Z" fill="#FFD15A"/>
</g>
<path d="M51.0447 78.3164H52.8161V104.204H51.0447V78.3164Z" fill="#FFD15A"/>
<path d="M140.504 1.48486H142.275V27.3725H140.504V1.48486Z" fill="#FFD15A"/>
<defs>
<clipPath id="clip0_160_116">
<rect width="56.687" height="74.2882" fill="white" transform="translate(100.646 214.693)"/>
</clipPath>
<clipPath id="clip1_160_116">
<rect width="44.6293" height="80.0878" fill="white" transform="translate(67.4485 193.656)"/>
</clipPath>
</defs>
</svg>
