<svg width="89" height="178" viewBox="0 0 89 178" fill="none" xmlns="http://www.w3.org/2000/svg">
<rect width="89" height="178" rx="5" fill="#5A616E"/>
<rect x="3" y="6" width="83" height="169" rx="5" fill="white"/>
<path d="M39.0379 149.778C24.3126 148.33 11.5093 137.818 3 125.962V171C3 173.209 4.79086 175 7 175H82C84.2091 175 86 173.209 86 171V124C76.5547 141.091 60.9936 151.462 39.0379 149.778Z" fill="#7C98C9"/>
<path d="M15.0608 70.7441C15.0608 70.7441 72.9201 74.8607 74.3294 70.5816C75.7386 66.3025 16.9398 65.0431 15.0608 62.6598C13.1819 60.2901 32.267 50.7839 47.4465 50.31C62.626 49.836 59.7941 43.6611 56.9756 42.7132C54.1437 41.7653 15.7453 39.856 14.9266 35.5904C14.1079 31.3113 33.4212 33.2206 33.4212 31.3113C33.4212 29.4019 -14.1439 18 32.4817 18C79.1074 18 54.6135 29.4019 59.3243 32.7331C64.0352 36.0643 71.5646 47.9402 61.6731 52.6933C51.7816 57.4464 32.9649 54.9412 32.4683 56.5932C31.9717 58.2453 79 67.941 79 70.4191C79 72.8972 30.5088 82.9044 28.2943 82.9991C26.0797 83.0939 5.51829 75.2805 15.0608 70.7441Z" fill="#7C98C9"/>
<rect y="89" width="3" height="13" fill="#5A616E"/>
<path d="M1.5 95C1.66667 95.5 2.8 96.6 6 97C9.2 97.4 59 97.1667 83.5 97C84.8333 97 87.5 96.6 87.5 95" stroke="black" stroke-width="3"/>
<rect x="86" y="88" width="3" height="13" fill="#5A616E"/>
<rect y="90" width="3" height="13" fill="#5A616E"/>
</svg>
