<svg width="94" height="89" viewBox="0 0 94 89" fill="none" xmlns="http://www.w3.org/2000/svg">
<path d="M26.0362 7.29211L31.3483 15.7703" stroke="#DFDFDF" stroke-width="2" stroke-linecap="round"/>
<path d="M10.4723 20.3883L18.1449 26.354" stroke="#DFDFDF" stroke-width="2" stroke-linecap="round"/>
<path d="M1.03555 39.5997L10.8721 41.7608" stroke="#DFDFDF" stroke-width="2" stroke-linecap="round"/>
<path d="M2.24188 62.9507L11.6371 59.3233" stroke="#DFDFDF" stroke-width="2" stroke-linecap="round"/>
<path d="M14.9602 80.1553L20.675 74.7144" stroke="#DFDFDF" stroke-width="2" stroke-linecap="round"/>
<path d="M66.8124 6.44501L62.6633 14.9982" stroke="#DFDFDF" stroke-width="2" stroke-linecap="round"/>
<path d="M47.2267 1.89062L47.0869 11.396" stroke="#DFDFDF" stroke-width="2" stroke-linecap="round"/>
<path d="M82.4988 18.7807L74.8796 24.4658" stroke="#DFDFDF" stroke-width="2" stroke-linecap="round"/>
<path d="M92.3456 37.5509L82.9576 39.0467" stroke="#DFDFDF" stroke-width="2" stroke-linecap="round"/>
<path d="M91.405 60.0164L82.0704 58.2174" stroke="#DFDFDF" stroke-width="2" stroke-linecap="round"/>
<path d="M80.1277 80.283L72.4176 74.7218" stroke="#DFDFDF" stroke-width="2" stroke-linecap="round"/>
<circle cx="46.7472" cy="48.819" r="39.3332" fill="#848484"/>
<circle cx="46.7472" cy="51.1081" r="37.2071" fill="#5A616E"/>
<circle cx="46.5209" cy="55.2358" r="30.2972" fill="#6A84BD"/>
<path d="M48.1288 26.4282C48.1288 25.5998 47.4573 24.9282 46.6288 24.9282C45.8004 24.9282 45.1288 25.5998 45.1288 26.4282H48.1288ZM45.1288 48.5026V50.0026H48.1288V48.5026H45.1288ZM45.1288 26.4282V48.5026H48.1288V26.4282H45.1288Z" fill="#C4C4C4"/>
</svg>
