<?xml version="1.0" encoding="utf-8"?>
<!-- Generator: Adobe Illustrator 25.4.0, SVG Export Plug-In . SVG Version: 6.00 Build 0)  -->
<svg version="1.1" id="Layer_1" xmlns="http://www.w3.org/2000/svg" xmlns:xlink="http://www.w3.org/1999/xlink" x="0px" y="0px"
	 viewBox="0 0 117.8 98.6" style="enable-background:new 0 0 117.8 98.6;" xml:space="preserve">
<style type="text/css">
	.st0{fill:#FFD15A;}
	.st1{fill:#848484;}
	.st2{fill:#5A616E;}
	.st3{fill:#C4C4C4;}
</style>
<path class="st0" d="M26.6,79.8c0,0-10.8-1.3-8.1-12.2c2.7-11,34-33.8,35.4-51.5C55.3-1.5,69.1-3.6,69.2,4.6
	c0.1,8.2-32.2,47.5-31.2,50.4C39.2,57.9,83.8,17.3,88,7.8c4.2-9.5,39.7,69-3.7,55.3c-43.4-13.7-43.4-0.2-42.7,2
	c0.7,2.1,78.7-5.6,62.9,13.9c0,0,2.3,7.7,11.2,6.4c8.9-1.3-13.2,26-26.7,5.7c-13.5-20.4-57-24.4-56.5-19.8
	C33.1,75.8,32.3,82.4,26.6,79.8z"/>
<circle class="st1" cx="46.7" cy="52" r="45.8"/>
<circle class="st2" cx="46.7" cy="54.6" r="43.3"/>
<circle class="st0" cx="46.5" cy="59.4" r="35.3"/>
<path class="st3" d="M48.1,25.9c0-0.8-0.7-1.5-1.5-1.5c-0.8,0-1.5,0.7-1.5,1.5H48.1z M45.1,51.6v1.5h3v-1.5H45.1z M45.1,25.9v25.7h3
	V25.9H45.1z"/>
</svg>
