<?xml version="1.0" encoding="utf-8"?>
<!-- Generator: Adobe Illustrator 25.4.0, SVG Export Plug-In . SVG Version: 6.00 Build 0)  -->
<svg version="1.1" id="Layer_1" xmlns="http://www.w3.org/2000/svg" xmlns:xlink="http://www.w3.org/1999/xlink" x="0px" y="0px"
	 viewBox="0 0 125 98.3" style="enable-background:new 0 0 125 98.3;" xml:space="preserve">
<style type="text/css">
	.st0{fill:#FFD15A;}
	.st1{fill:#848484;}
	.st2{fill:#5A616E;}
	.st3{fill:#C4C4C4;}
</style>
<path class="st0" d="M59,6.1c0,0,4.3-10,14-4.3c9.8,5.7,22.8,42.2,39.3,48.5c16.5,6.4,14.6,20.2,6.7,18
	c-7.9-2.2-36.5-44.4-39.6-44.2c-3.1,0.2,23.2,54.5,31.2,61.2c8,6.7-77.4,18.5-52-19.2c25.4-37.7,12.4-41.5,10.2-41.5
	c-2.2,0-16.9,77-31.1,56.4c0,0-8,0-9.3,8.9c-1.3,8.9-21.2-20,2.1-27.2c23.4-7.2,39.5-47.8,35-48.6C61,13.4,55,10.8,59,6.1z"/>
<circle class="st1" cx="45.8" cy="52.3" r="45.8"/>
<circle class="st2" cx="45.8" cy="55" r="43.3"/>
<circle class="st0" cx="45.5" cy="59.8" r="35.3"/>
<path class="st3" d="M47.1,26.3c0-0.8-0.7-1.5-1.5-1.5c-0.8,0-1.5,0.7-1.5,1.5H47.1z M44.1,52v1.5h3V52H44.1z M44.1,26.3V52h3V26.3
	H44.1z"/>
</svg>
