<svg width="133" height="107" viewBox="0 0 133 107" fill="none" xmlns="http://www.w3.org/2000/svg">
<g clip-path="url(#clip0_331_16)">
<path d="M130.47 3.97008C130.47 -2.46391 118.654 0.651026 101.519 1.49854C84.385 2.35049 88.2864 27.1369 89.703 30.9973C91.2095 35.0973 88.5225 80.8319 80.8434 83.3789C73.1644 85.9258 76.706 74.4689 82.6142 65.5589C88.5225 56.649 69.027 59.1959 58.391 61.7429C47.7551 64.2899 56.03 71.9264 56.6203 81.2579C57.2105 90.5894 68.4367 89.3203 67.2562 97.8043C66.7896 101.146 65.5922 102.113 64.0238 101.523C63.4561 101.31 62.7983 101.616 62.7983 102.113V102.388C62.7983 104.025 64.9375 101.407 66 100C67.456 98.0787 69.0776 99.0467 69.5217 97.6091C70.6123 94.0815 61.0613 82.3228 61.0613 82.3228C58.8801 71.1543 64.3386 69.5835 71.433 67.8219C78.5274 66.0603 71.9783 81.9323 71.9783 83.4987C71.9783 85.065 77.4368 94.0815 98.9954 83.4987C120.554 72.9159 101.182 38.0392 100.637 23.1434C100.086 8.25201 127.924 14.5218 127.924 17.9829C127.924 21.4439 116.192 31.9602 124.101 38.0347C132.016 44.1093 118.918 55.6728 119.188 68.4076C119.351 75.9864 126.468 79.1413 133 81.6972V8.87322C131.522 7.38675 130.47 5.80266 130.47 3.97008Z" fill="#80B46E"/>
</g>
<circle cx="46.3212" cy="60.9303" r="45.7839" fill="#848484"/>
<circle cx="46.3212" cy="63.5949" r="43.3091" fill="#5A616E"/>
<circle cx="46.0578" cy="68.3995" r="35.2659" fill="#75A85B"/>
<path d="M47.6835 34.8677C47.6835 34.0392 47.0119 33.3677 46.1835 33.3677C45.355 33.3677 44.6835 34.0392 44.6835 34.8677H47.6835ZM44.6835 60.5622V62.0622H47.6835V60.5622H44.6835ZM44.6835 34.8677V60.5622H47.6835V34.8677H44.6835Z" fill="#C4C4C4"/>
<defs>
<clipPath id="clip0_331_16">
<rect width="80" height="104" fill="white" transform="matrix(-1 0 0 1 133 0)"/>
</clipPath>
</defs>
</svg>
