<svg width="133" height="92" viewBox="0 0 133 92" fill="none" xmlns="http://www.w3.org/2000/svg">
<g clip-path="url(#clip0_293_2)">
<path d="M3.95447 82.3784C-1.51139 82.4213 1.05097 71.7108 1.64933 56.2044C2.25147 40.6981 23.3359 44.0622 26.6255 45.318C30.1193 46.6536 68.9531 43.9179 71.0623 36.9541C73.1715 29.9903 63.4637 33.2705 55.9363 38.6748C48.409 44.0791 50.4343 26.4255 52.5225 16.7867C54.6108 7.14793 61.1569 14.5829 69.0885 15.0547C77.0201 15.5265 76.0217 25.6907 83.2207 24.5662C86.0559 24.1219 86.8691 23.0322 86.3566 21.6173C86.1717 21.105 86.4271 20.508 86.8493 20.5047L87.083 20.5029C88.474 20.4919 88.9985 22.9595 87.8111 23.9301C86.1892 25.26 84.2891 26.2057 83.0709 26.617C80.0819 27.6271 70.0247 19.0652 70.0247 19.0652C60.5213 17.1664 59.2256 22.1149 57.7794 28.5446C56.3333 34.9743 69.7705 28.9439 71.1012 28.9334C72.4318 28.923 80.1303 33.8009 71.2929 53.3744C62.4555 72.948 32.6893 55.6557 20.031 55.2617C7.37643 54.8626 12.9004 80.0043 15.8407 79.9813C18.7809 79.9582 27.6315 69.2746 32.8482 76.3894C38.0649 83.5094 47.7954 71.583 58.616 71.7422C65.0555 71.8392 67.7862 78.2565 70.0038 84.1488L8.1378 84.6342C6.8645 83.3066 5.5113 82.3662 3.95447 82.3784Z" fill="#80B46E"/>
</g>
<circle cx="86.2479" cy="45.9303" r="45.7839" fill="#848484"/>
<circle cx="86.2479" cy="48.5949" r="43.3091" fill="#5A616E"/>
<circle cx="85.9844" cy="53.3995" r="35.2659" fill="#75A85B"/>
<path d="M87.6101 19.8677C87.6101 19.0392 86.9385 18.3677 86.1101 18.3677C85.2817 18.3677 84.6101 19.0392 84.6101 19.8677H87.6101ZM84.6101 45.5622V47.0622H87.6101V45.5622H84.6101ZM84.6101 19.8677V45.5622H87.6101V19.8677H84.6101Z" fill="#C4C4C4"/>
<defs>
<clipPath id="clip0_293_2">
<rect width="72.3743" height="88.3538" fill="white" transform="translate(0.600006 84.6934) rotate(-90.4495)"/>
</clipPath>
</defs>
</svg>
