<svg width="89" height="470" viewBox="0 0 89 470" fill="none" xmlns="http://www.w3.org/2000/svg">
<rect x="35" width="19" height="470" rx="9.5" fill="#33333B"/>
<rect y="94" width="89" height="178" rx="5" fill="#5A616E"/>
<rect x="4" y="96" width="81" height="169" rx="5" fill="white"/>
<path d="M53.1127 126.157C44.0799 124.785 16.9998 111.97 15.5049 111.97C14.01 111.97 2.51298 118.617 18.0055 126.174C33.4979 133.731 55.269 123.798 53.1218 132.787C50.9745 141.777 20.0077 131.844 18.0055 134.683C16.0032 137.522 12.0078 146.983 19.5003 169.208C26.9929 191.432 25.498 155.964 23.4958 152.181C21.4935 148.398 19.5003 136.57 26.4946 139.881C33.4889 143.192 27.7721 168.264 31.6316 169.679C35.4911 171.095 63.9665 138.466 63.9665 135.155C63.9665 131.844 70.9517 143.149 66.7116 148.167C62.4716 153.185 52.8228 153.245 51.1376 155.895C49.4525 158.546 45.2487 179.26 60.9586 177.939C76.6685 176.61 59.5543 170.769 59.5543 167.852C59.5543 164.936 75.5451 150.86 76.9494 133.86C78.3537 116.867 50.0233 132.53 56.7548 126.423C63.4863 120.316 72.7456 127.221 73.0264 122.177C73.3073 117.133 79.7579 108.367 28.7052 109.036C28.7052 109.036 26.7392 113.153 34.875 114.474C43.0109 115.795 52.0346 111.549 53.1308 113.943C54.2089 116.319 59.0016 127.058 53.1127 126.157Z" fill="#76AA5B"/>
<path d="M8 265H80C62.3158 262.167 48.7627 246.004 48.7627 226.5C48.7627 206.988 62.3158 190.833 80 188H8C28.4727 190.833 44.1549 206.996 44.1549 226.5C44.1549 246.012 28.4727 262.167 8 265Z" fill="#76AA5B"/>
<path d="M1.5 178.5C2 181.5 2.37615 184.882 3.5 186C4.57901 187.073 57.8065 186.976 82.5664 186.554C84.4276 186.522 86.1997 185.607 86.6443 183.799C87.3466 180.944 87.2317 177.444 87.5 176.5" stroke="black" stroke-width="3" stroke-linecap="round"/>
</svg>
