<svg width="89" height="470" viewBox="0 0 89 470" fill="none" xmlns="http://www.w3.org/2000/svg">
<rect x="35" width="19" height="470" rx="9.5" fill="#33333B"/>
<rect y="94" width="89" height="178" rx="5" fill="#5A616E"/>
<rect x="4" y="96" width="81" height="169" rx="5" fill="white"/>
<path d="M26.2887 236.235C26.2887 214.729 43.1783 197.294 64.0111 197.294C70.3587 197.294 76.3376 198.921 81.5846 201.778V188H7V265H38.5885C31.0333 257.879 26.2887 247.631 26.2887 236.235Z" fill="#E84648"/>
<path d="M56.3257 166.928C56.3257 166.928 67.0223 169.85 61.0653 152.972C55.1084 136.094 56.1697 102.588 54.4036 101.194C52.6375 99.8001 49.0861 101.095 47.6008 106.954C46.1156 112.813 53.979 149.022 35.7059 143.696C17.4328 138.37 42.2124 105.943 35.5437 103.105C28.8751 100.258 22.1148 102.403 19.8031 106.435C17.4914 110.467 27.3467 110.2 27.7672 112.02C28.1797 113.839 12.7679 166.904 15.5655 166.328C19.3543 165.553 47.8077 142.078 38.9657 174.754C38.9657 174.754 46.454 168.958 46.7527 152.697C47.0514 136.435 49.8564 107.278 50.7539 108.704C51.6672 110.138 45.969 163.715 56.3257 166.928Z" fill="#E84648"/>
<path d="M1.5 178.5C2 181.5 2.37615 184.882 3.5 186C4.57901 187.073 57.8065 186.976 82.5664 186.554C84.4276 186.522 86.1997 185.607 86.6443 183.799C87.3466 180.944 87.2317 177.444 87.5 176.5" stroke="black" stroke-width="3" stroke-linecap="round"/>
</svg>
