<svg width="157" height="291" viewBox="0 0 157 291" fill="none" xmlns="http://www.w3.org/2000/svg">
<path d="M156 290.474L156.883 0.475098L0.883294 0.000173996L0.000422722 289.999L156 290.474Z" fill="#FAF9F9"/>
<path d="M32.8623 110.682C32.931 88.1115 -0.0147704 92.197 9.304 71.7149C18.5903 51.2327 31.8142 38.9087 39.0576 49.3309C46.2687 59.753 37.3297 126.184 42.2411 134.506C47.1525 142.828 33.2788 155.246 71.1142 166.663C108.982 178.08 79.8891 207.453 78.2219 210.99C76.5548 214.527 39.5036 222.882 41.075 240.146C42.3642 254.091 57.3982 276.612 62.9106 290.216L96.2659 290.318C100.157 281.862 100.411 283.794 99.1416 273.873C97.0162 257.252 71.0351 256.626 73.2344 238.344C75.4661 220.062 112.233 240.91 110.217 188.516C108.2 136.123 58.2655 173.096 60.6113 106.678C63.0546 40.2274 43.5647 41.134 27.293 41.0845C20.3751 41.0634 10.1032 43.8978 0.733768 49.0211L0.428717 149.222C14.5027 135.033 32.8099 127.909 32.8623 110.682Z" fill="#80B46E"/>
<path d="M156.571 102.797L156.606 91.4426C153.235 91.4323 149.702 91.4554 146.007 91.4779C146.039 91.478 142.449 99.7126 156.571 102.797Z" fill="#80B46E"/>
<path d="M156.431 148.349C141.431 146.141 127.147 142.887 125.291 145.72C121.416 151.723 113.673 171.705 127.953 218.822C142.201 265.905 139.577 190.809 135.745 182.789C131.912 174.768 128.164 149.716 141.593 156.786C155.023 163.822 143.874 216.877 151.287 219.907C152.226 220.282 153.946 219.51 156.22 217.827L156.431 148.349Z" fill="#80B46E"/>
<path d="M156.475 134.325L156.536 114.05C138.993 106.055 122.262 97.6573 120.641 97.6523C117.756 97.6435 95.6409 111.634 125.346 127.742C135.119 133.01 146.168 134.294 156.475 134.325Z" fill="#80B46E"/>
<path d="M130.746 51.3892L89.1941 51.2627L89.1057 80.2907L130.658 80.4172L130.746 51.3892Z" fill="#80B46E"/>
<path d="M27.8915 231.358C20.6576 212.006 9.07684 204.503 0.275269 199.711L0.101712 256.719C3.94198 262.239 5.77259 267.787 3.84372 273.222C2.76507 276.192 1.49565 277.946 0.0344299 278.82L0.0248622 281.963C11.7041 278.416 41.6519 268.166 27.8915 231.358Z" fill="#80B46E"/>
<path d="M73.1821 19.0091L63.7826 18.9805L63.7753 21.3797L73.1748 21.4084L73.1821 19.0091Z" fill="#80B46E" stroke="#80B46E" stroke-width="2" stroke-miterlimit="10"/>
<path d="M44.8466 18.9231L15.4164 18.8335L15.4091 21.2328L44.8392 21.3224L44.8466 18.9231Z" fill="#80B46E" stroke="#80B46E" stroke-width="2" stroke-miterlimit="10"/>
</svg>
