<svg width="157" height="290" viewBox="0 0 157 290" fill="none" xmlns="http://www.w3.org/2000/svg">
<g clip-path="url(#clip0_160_118)">
<rect width="156.88" height="290" fill="#FAF9F9"/>
<path d="M133.965 -5.25684H59.0503V22.7794H133.965V-5.25684Z" fill="#7C98C9"/>
<g clip-path="url(#clip1_160_118)">
<path d="M61.3077 -48.9468L60.5911 -48.9468L60.5911 20.7897L61.3077 20.7897L61.3077 -48.9468Z" fill="#7C98C9" stroke="#7C98C9" stroke-width="3" stroke-miterlimit="10"/>
<path d="M133.145 88.3414L133.084 21.0273L130.974 21.0294L131.035 88.3434L133.145 88.3414Z" fill="#7C98C9" stroke="#7C98C9" stroke-width="2" stroke-miterlimit="10"/>
</g>
<path d="M54.0365 36.811H-14.8164V64.6438H54.0365V36.811Z" fill="#7C98C9"/>
<path d="M142.983 70.9668C111.455 70.9668 108.553 146.597 103.928 145.658C99.304 144.707 106.289 108.451 93.0297 89.3958C79.7707 70.3409 46.6293 84.8578 37.3564 93.9339C30.0344 101.096 8.68277 73.2539 -1.50973e-07 105.285L-4.83632e-07 180.903C8.56235 200.68 29.2035 143.828 33.3703 143.828C38.669 143.828 33.3703 181.035 45.3046 179.458C57.2389 177.894 62.5376 103.901 65.187 98.4599C67.8364 93.019 85.0695 87.5662 86.3942 116.817C87.7189 146.055 28.8543 210.262 120.86 179.218C142.971 171.755 127.387 112.05 139.322 114.77C151.256 117.491 143.404 179.218 143.404 179.218C147.33 184.911 152.135 185.044 156.88 182.383L156.88 74.927C153.002 72.4233 148.414 70.9668 142.983 70.9668Z" fill="#7C98C9"/>
<path d="M130.238 240.619H57.5227V268.246H130.238V240.619Z" fill="#7C98C9"/>
<path d="M129.41 289.963L129.382 259.474L127.041 259.476L127.069 289.965L129.41 289.963Z" fill="#7C98C9" stroke="#7C98C9" stroke-width="2" stroke-miterlimit="10"/>
<path d="M0.247697 290.788L38.5782 290.512C38.4961 278.428 38.2959 265.765 38.0917 252.521C38.0925 252.637 10.1704 240.057 0.247697 290.788Z" fill="#7C98C9"/>
</g>
<defs>
<clipPath id="clip0_160_118">
<rect width="156.88" height="290" fill="white"/>
</clipPath>
<clipPath id="clip1_160_118">
<rect width="191.842" height="173.474" fill="white" transform="translate(0 -49.9395)"/>
</clipPath>
</defs>
</svg>
