<svg width="94" height="89" viewBox="0 0 94 89" fill="none" xmlns="http://www.w3.org/2000/svg">
<path d="M26.0185 7.29211L31.3306 15.7703" stroke="#DFDFDF" stroke-width="2" stroke-linecap="round"/>
<path d="M10.4547 20.3883L18.1273 26.354" stroke="#DFDFDF" stroke-width="2" stroke-linecap="round"/>
<path d="M1.01788 39.5997L10.8544 41.7608" stroke="#DFDFDF" stroke-width="2" stroke-linecap="round"/>
<path d="M2.22418 62.9507L11.6194 59.3233" stroke="#DFDFDF" stroke-width="2" stroke-linecap="round"/>
<path d="M14.9425 80.1553L20.6574 74.7144" stroke="#DFDFDF" stroke-width="2" stroke-linecap="round"/>
<path d="M66.7947 6.44501L62.6456 14.9982" stroke="#DFDFDF" stroke-width="2" stroke-linecap="round"/>
<path d="M47.2091 1.89062L47.0693 11.396" stroke="#DFDFDF" stroke-width="2" stroke-linecap="round"/>
<path d="M82.4811 18.7807L74.8619 24.4658" stroke="#DFDFDF" stroke-width="2" stroke-linecap="round"/>
<path d="M92.3279 37.5509L82.9399 39.0467" stroke="#DFDFDF" stroke-width="2" stroke-linecap="round"/>
<path d="M91.3873 60.0164L82.0527 58.2174" stroke="#DFDFDF" stroke-width="2" stroke-linecap="round"/>
<path d="M80.11 80.283L72.3999 74.7218" stroke="#DFDFDF" stroke-width="2" stroke-linecap="round"/>
<circle cx="46.7295" cy="48.6653" r="39.3332" fill="#848484"/>
<circle cx="46.7296" cy="50.9544" r="37.2071" fill="#5A616E"/>
<circle cx="46.5032" cy="55.0821" r="30.2972" fill="#80B46E"/>
<path d="M48.1112 26.2745C48.1112 25.4461 47.4396 24.7745 46.6112 24.7745C45.7828 24.7745 45.1112 25.4461 45.1112 26.2745H48.1112ZM45.1112 48.3489V49.8489H48.1112V48.3489H45.1112ZM45.1112 26.2745V48.3489H48.1112V26.2745H45.1112Z" fill="#C4C4C4"/>
</svg>
