<svg width="89" height="178" viewBox="0 0 89 178" fill="none" xmlns="http://www.w3.org/2000/svg">
<rect width="89" height="178" rx="5" fill="#5A616E"/>
<rect x="3" y="6" width="83" height="169" rx="5" fill="white"/>
<rect y="89" width="3" height="13" fill="#5A616E"/>
<path d="M6 175H78C60.3158 172.167 46.7627 156.004 46.7627 136.5C46.7627 116.988 60.3158 100.833 78 98H6C26.4727 100.833 42.1549 116.996 42.1549 136.5C42.1549 156.012 26.4727 172.167 6 175Z" fill="#76AA5B"/>
<path d="M52.3996 34.6542C43.0973 33.2421 15.2088 20.0558 13.6692 20.0558C12.1297 20.0558 0.289483 26.8961 16.2444 34.6719C32.1994 42.4477 54.6203 32.2271 52.409 41.4769C50.1977 50.7267 18.3064 40.506 16.2444 43.4274C14.1824 46.3489 10.0677 56.0841 17.7839 78.9527C25.5002 101.821 23.9606 65.3251 21.8986 61.4328C19.8366 57.5405 17.7839 45.3692 24.987 48.7761C32.19 52.183 26.3026 77.9818 30.2773 79.4381C34.2521 80.8945 63.5774 47.3198 63.5774 43.9129C63.5774 40.506 70.7712 52.1389 66.4045 57.3022C62.0379 62.4655 52.1011 62.5272 50.3656 65.2545C48.6302 67.9818 44.3009 89.297 60.4797 87.9377C76.6586 86.5697 59.0335 80.5591 59.0335 77.5582C59.0335 74.5573 75.5017 60.0736 76.9479 42.5801C78.3941 25.0955 49.218 41.2121 56.1505 34.9279C63.0829 28.6436 72.6186 35.7487 72.9078 30.5589C73.1971 25.3691 79.8403 16.3488 27.2636 17.0372C27.2636 17.0372 25.2389 21.2738 33.6176 22.633C41.9963 23.9922 51.2893 19.6233 52.4183 22.0858C53.5286 24.5306 58.4644 35.581 52.3996 34.6542Z" fill="#76AA5B"/>
<path d="M1.5 95C1.66667 95.5 2.8 96.6 6 97C9.2 97.4 59 97.1667 83.5 97C84.8333 97 87.5 96.6 87.5 95" stroke="black" stroke-width="3"/>
<rect x="86" y="88" width="3" height="13" fill="#5A616E"/>
<rect y="90" width="3" height="13" fill="#5A616E"/>
</svg>
