<svg width="82" height="56" viewBox="0 0 82 56" fill="none" xmlns="http://www.w3.org/2000/svg">
<g clip-path="url(#clip0_258_2)">
<path d="M48.1871 0.892402C50.0866 2.48777 53.1581 3.02859 57.3073 2.09571C68.3672 -0.391983 97.2767 32.2319 71.762 29.1358C46.2473 26.0397 39.808 2.09568 34.3386 7.39554C26.9429 14.6423 17.6342 26.3236 27.6029 28.3516C37.0329 30.312 45.7489 47.0904 53.9798 52.3226C53.9965 52.3337 54.0102 52.3488 54.0196 52.3665C54.0291 52.3842 54.034 52.404 54.034 52.4241C54.034 52.4441 54.0291 52.4639 54.0196 52.4816C54.0102 52.4993 53.9965 52.5143 53.9798 52.5254L50.0731 55.919C50.0385 55.9326 50 55.9326 49.9654 55.919C34.177 52.4579 1.58981 55.4728 0.121435 37.9914C-1.57595 17.9817 17.9171 1.94699 21.8372 0.540909C29.0174 -2.04142 37.3427 3.89385 44.6577 9.26131C54.5591 16.5216 51.8244 11.9653 61.2274 17.0353C70.6304 22.1053 69.1889 30.3526 75.4262 26.2966C81.6634 22.2406 74.3754 7.63891 61.8471 4.6645C61.8471 4.6645 49.9115 3.43417 48.0524 2.46073C47.298 2.06865 46.5706 1.66304 45.897 1.27096" fill="#6A8CC5"/>
</g>
<defs>
<clipPath id="clip0_258_2">
<rect width="82" height="56" fill="white"/>
</clipPath>
</defs>
</svg>
