<svg width="13" height="11" viewBox="0 0 13 11" fill="none" xmlns="http://www.w3.org/2000/svg">
<path d="M0.141716 1.61061C0.141716 1.61061 -0.499456 0.478444 0.94581 0.0671881C2.39108 -0.344068 7.25768 1.30579 9.37565 0.362325C11.4936 -0.581145 12.7234 0.638108 11.8037 1.15097C10.8787 1.66867 4.04656 0.923568 3.7943 1.20903C3.54203 1.49449 11.4095 3.3524 12.8022 3.17822C14.195 3.00404 7.83053 11.2872 6.23811 6.21668C4.64569 1.14613 3.10582 1.97348 2.91137 2.16701C2.72217 2.36055 9.26528 9.50189 5.8965 9.15837C5.8965 9.15837 5.18701 9.85025 5.98059 10.6486C6.77417 11.4469 2.05472 10.9631 3.39488 8.38908C4.73503 5.8151 2.02319 1.32031 1.54494 1.65899C1.06669 1.99767 0.267849 2.32668 0.141716 1.61061Z" fill="#FFD15A"/>
</svg>
