<svg width="17" height="17" viewBox="0 0 17 17" fill="none" xmlns="http://www.w3.org/2000/svg">
<path d="M15.2405 13.6295C15.2405 13.6295 2.3169 14.5925 2.01051 13.4897C1.70312 12.3859 14.8316 12.159 15.2561 11.5502C15.6816 10.9413 11.4369 8.46314 8.05062 8.31504C4.6643 8.16694 5.30661 6.58182 5.93981 6.34136C6.57199 6.1019 15.148 5.67699 15.3377 4.57691C15.5274 3.47683 11.2135 3.93381 11.2171 3.44439C11.2208 2.95497 21.8596 0.0993575 11.4534 0.0210427C1.04712 -0.0572722 6.49071 2.91937 5.43302 3.7677C4.37533 4.61602 2.67072 7.66148 4.86924 8.90115C7.06775 10.1408 11.2726 9.52823 11.3786 9.95516C11.4856 10.3821 0.969414 12.7984 0.964604 13.4376C0.959794 14.0768 11.7676 16.734 12.2624 16.7608C12.7563 16.7897 17.3622 14.8153 15.2405 13.6295Z" fill="#7C98C9"/>
</svg>
