<svg width="10" height="16" viewBox="0 0 10 16" fill="none" xmlns="http://www.w3.org/2000/svg">
<path d="M8.60014 14.1045C8.60014 14.1045 10.7971 14.6997 9.57362 11.261C8.35009 7.82229 8.56809 0.995839 8.20534 0.711833C7.8426 0.427828 7.11315 0.69161 6.80809 1.88536C6.50303 3.07911 8.11814 10.4563 4.36496 9.37122C0.611777 8.28609 5.70135 1.67946 4.33163 1.10116C2.96195 0.521221 1.57343 0.958205 1.09862 1.77964C0.623814 2.60107 2.64803 2.54667 2.73439 2.91744C2.81912 3.28818 -0.346368 14.0996 0.228256 13.9823C1.00644 13.8244 6.85059 9.04151 5.0345 15.6989C5.0345 15.6989 6.57254 14.5181 6.63389 11.2049C6.69524 7.89174 7.27137 1.95136 7.45572 2.24191C7.64331 2.53416 6.47293 13.4498 8.60014 14.1045Z" fill="#E84648"/>
</svg>
