<svg width="12" height="17" viewBox="0 0 12 17" fill="none" xmlns="http://www.w3.org/2000/svg">
<g clip-path="url(#clip0_114_873)">
<path d="M7.7241 4.22937C6.10588 3.89301 1.2539 0.73533 0.985985 0.73533C0.718068 0.73533 -1.33953 2.37252 1.43341 4.23281C4.20635 6.09309 8.10722 3.64589 7.7241 5.8597C7.34097 8.07694 1.79241 5.62974 1.43341 6.32649C1.0744 7.02324 0.359059 9.35717 1.70132 14.8316C3.04359 20.3061 2.77567 11.571 2.41666 10.6374C2.05765 9.70383 1.70132 6.79327 2.9525 7.60672C4.20367 8.42017 3.1829 14.5982 3.87145 14.9483C4.56268 15.2984 9.66381 7.26006 9.66381 6.44318C9.66381 5.6263 10.915 8.4133 10.1541 9.64892C9.3959 10.8845 7.66515 10.8983 7.36509 11.5538C7.06502 12.2094 6.30949 17.3097 9.12262 16.9837C11.9358 16.6576 8.87078 15.216 8.87078 14.4987C8.87078 13.7814 11.7348 10.3113 11.9867 6.12398C12.2385 1.93662 7.16415 5.79792 8.36978 4.29115C9.5754 2.78439 11.2338 4.48679 11.2847 3.24431C11.3356 2.00183 12.4903 -0.157059 3.34633 0.00768992C3.34633 0.00768992 2.99536 1.02021 4.45283 1.3497C5.9103 1.6792 7.52584 0.62893 7.7241 1.21928C7.91968 1.80963 8.77969 4.45247 7.7241 4.22937Z" fill="#76AA5B"/>
</g>
<defs>
<clipPath id="clip0_114_873">
<rect width="12" height="17" fill="white"/>
</clipPath>
</defs>
</svg>
