<svg width="109" height="101" viewBox="0 0 109 101" fill="none" xmlns="http://www.w3.org/2000/svg">
<path d="M30.1195 7.45215L36.3028 17.3207" stroke="#DFDFDF" stroke-width="2" stroke-linecap="round"/>
<path d="M12.0034 22.6963L20.9343 29.6404" stroke="#DFDFDF" stroke-width="2" stroke-linecap="round"/>
<path d="M1.01886 45.0583L12.4686 47.5739" stroke="#DFDFDF" stroke-width="2" stroke-linecap="round"/>
<path d="M2.42297 72.2388L13.359 68.0165" stroke="#DFDFDF" stroke-width="2" stroke-linecap="round"/>
<path d="M17.2271 92.2649L23.8791 85.9316" stroke="#DFDFDF" stroke-width="2" stroke-linecap="round"/>
<path d="M77.5831 6.46655L72.7535 16.4225" stroke="#DFDFDF" stroke-width="2" stroke-linecap="round"/>
<path d="M54.7854 1.16504L54.6227 12.2293" stroke="#DFDFDF" stroke-width="2" stroke-linecap="round"/>
<path d="M95.842 20.8252L86.9733 27.4426" stroke="#DFDFDF" stroke-width="2" stroke-linecap="round"/>
<path d="M107.304 42.6736L96.3761 44.4146" stroke="#DFDFDF" stroke-width="2" stroke-linecap="round"/>
<path d="M106.209 68.8235L95.3433 66.7295" stroke="#DFDFDF" stroke-width="2" stroke-linecap="round"/>
<path d="M93.082 92.4138L84.1075 85.9405" stroke="#DFDFDF" stroke-width="2" stroke-linecap="round"/>
<circle cx="54.2271" cy="54.3732" r="45.7839" fill="#848484"/>
<circle cx="54.2272" cy="57.0381" r="43.3091" fill="#5A616E"/>
<circle cx="53.9636" cy="61.8426" r="35.2659" fill="#E84648"/>
<path d="M55.5894 28.3108C55.5894 27.4824 54.9178 26.8108 54.0894 26.8108C53.2609 26.8108 52.5894 27.4824 52.5894 28.3108H55.5894ZM52.5894 54.0053V55.5053H55.5894V54.0053H52.5894ZM52.5894 28.3108V54.0053H55.5894V28.3108H52.5894Z" fill="#C4C4C4"/>
</svg>
