<svg width="109" height="102" viewBox="0 0 109 102" fill="none" xmlns="http://www.w3.org/2000/svg">
<path d="M30.6974 7.75415L36.8807 17.6227" stroke="#DFDFDF" stroke-width="2" stroke-linecap="round"/>
<path d="M12.5811 22.9983L21.512 29.9424" stroke="#DFDFDF" stroke-width="2" stroke-linecap="round"/>
<path d="M1.59668 45.3606L13.0464 47.8761" stroke="#DFDFDF" stroke-width="2" stroke-linecap="round"/>
<path d="M3.00092 72.541L13.9369 68.3187" stroke="#DFDFDF" stroke-width="2" stroke-linecap="round"/>
<path d="M17.8051 92.5671L24.4571 86.2339" stroke="#DFDFDF" stroke-width="2" stroke-linecap="round"/>
<path d="M78.161 6.7688L73.3314 16.7247" stroke="#DFDFDF" stroke-width="2" stroke-linecap="round"/>
<path d="M55.3633 1.46729L55.2005 12.5316" stroke="#DFDFDF" stroke-width="2" stroke-linecap="round"/>
<path d="M96.4199 21.1272L87.5512 27.7446" stroke="#DFDFDF" stroke-width="2" stroke-linecap="round"/>
<path d="M107.882 42.9758L96.9539 44.7169" stroke="#DFDFDF" stroke-width="2" stroke-linecap="round"/>
<path d="M106.787 69.1255L95.9212 67.0315" stroke="#DFDFDF" stroke-width="2" stroke-linecap="round"/>
<path d="M93.6599 92.7158L84.6854 86.2425" stroke="#DFDFDF" stroke-width="2" stroke-linecap="round"/>
<circle cx="54.8051" cy="55.9133" r="45.7839" fill="#848484"/>
<circle cx="54.8051" cy="58.5779" r="43.3091" fill="#5A616E"/>
<circle cx="54.5417" cy="63.3826" r="35.2659" fill="white"/>
<path d="M56.1675 29.8506C56.1675 29.0222 55.4959 28.3506 54.6675 28.3506C53.8391 28.3506 53.1675 29.0222 53.1675 29.8506H56.1675ZM53.1675 55.5451V57.0451H56.1675V55.5451H53.1675ZM53.1675 29.8506V55.5451H56.1675V29.8506H53.1675Z" fill="#C4C4C4"/>
</svg>
