<svg width="89" height="178" viewBox="0 0 89 178" fill="none" xmlns="http://www.w3.org/2000/svg">
<rect width="89" height="178" rx="5" fill="#5A616E"/>
<rect x="3" y="6" width="83" height="169" rx="5" fill="white"/>
<path d="M40.1668 167.66C40.1668 145.605 57.2177 127.707 78.2848 127.707C80.927 127.707 83.4987 127.975 86 128.512V96H47.2479C48.0229 99.0501 48.4457 102.201 48.4457 105.452C48.4457 127.506 29.6333 145.404 6.45246 145.404C5.2899 145.404 4.12733 145.337 3 145.27V171C3 173.209 4.79086 175 7 175H40.8714C40.4134 172.62 40.1668 170.174 40.1668 167.66Z" fill="#FFD15A"/>
<rect y="89" width="3" height="13" fill="#5A616E"/>
<path d="M1.5 95C1.66667 95.5 2.8 96.6 6 97C9.2 97.4 59 97.1667 83.5 97C84.8333 97 87.5 96.6 87.5 95" stroke="black" stroke-width="3"/>
<rect x="86" y="88" width="3" height="13" fill="#5A616E"/>
<rect y="90" width="3" height="13" fill="#5A616E"/>
<path d="M6.8394 28.1029C6.8394 28.1029 3.04168 21.0012 11.6021 18.4215C20.1625 15.8418 48.9878 26.1909 61.5327 20.2728C74.0776 14.3546 81.3617 22.0027 75.9142 25.2197C70.4355 28.4671 29.9681 23.7933 28.4739 25.5839C26.9797 27.3745 73.5795 39.0287 81.8287 37.9361C90.0778 36.8435 52.3808 88.8017 42.9488 56.9955C33.5168 25.1894 24.396 30.3791 23.2443 31.5931C22.1236 32.8071 60.879 77.6028 40.9254 75.4479C40.9254 75.4479 36.723 79.7879 41.4235 84.7956C46.1239 89.8032 18.1703 86.7683 26.1081 70.6224C34.046 54.4765 17.9835 26.2819 15.1508 28.4064C12.3181 30.5309 7.58649 32.5946 6.8394 28.1029Z" fill="#FFD15A"/>
</svg>
